Coordinates
version=1
nRows=38
nColumns=12
inDegrees=yes

Units are S.I. units (second, meters, Newtons, ...)
Angles are in degrees

endheader
time	SC_y	SC_z	SC_x	AC_y	AC_z	AC_x	GH_y	GH_z	GH_yy	EL_x	PS_y
       0.0               -43.4          6.127          11.76          41.88         -15.26         -6.005         -94.68          53.28         -49.94          134.6          121.5
   0.02592               -43.4          6.131          11.77          41.88         -15.25         -6.004         -94.68          53.27         -49.91          134.6          121.5
   0.05185               -43.4          6.135          11.78          41.88         -15.25         -6.004         -94.68          53.27         -49.88          134.6          121.5
   0.07777              -43.39          6.139          11.79          41.88         -15.25         -6.004         -94.69          53.26         -49.84          134.5          121.5
    0.1037              -43.39          6.144          11.81          41.89         -15.25         -6.003         -94.69          53.25         -49.81          134.5          121.5
    0.1296              -43.38          6.149          11.82          41.89         -15.25         -6.003          -94.7          53.25         -49.77          134.5          121.5
    0.1555              -43.38          6.154          11.83          41.89         -15.25         -6.002          -94.7          53.24         -49.73          134.5          121.5
    0.1815              -43.37          6.159          11.84           41.9         -15.25         -6.002         -94.71          53.23         -49.68          134.5          121.5
    0.2074              -43.36          6.166          11.86           41.9         -15.25         -6.001         -94.71          53.22         -49.63          134.5          121.5
    0.2333              -43.36          6.172          11.87           41.9         -15.24         -6.001         -94.72          53.21         -49.58          134.4          121.5
    0.2592              -43.35          6.179          11.89          41.91         -15.24           -6.0         -94.72           53.2         -49.53          134.4          121.5
    0.2852              -43.34          6.186          11.91          41.91         -15.24           -6.0         -94.73          53.19         -49.47          134.4          121.5
    0.3111              -43.34          6.195          11.93          41.92         -15.24         -5.999         -94.74          53.17          -49.4          134.4          121.5
     0.337              -43.33          6.203          11.95          41.92         -15.24         -5.998         -94.75          53.16         -49.33          134.3          121.5
    0.3629              -43.32          6.213          11.97          41.93         -15.24         -5.997         -94.76          53.14         -49.26          134.3          121.5
    0.3889              -43.31          6.223           12.0          41.94         -15.23         -5.996         -94.77          53.13         -49.18          134.3          121.5
    0.4148               -43.3          6.234          12.03          41.94         -15.23         -5.995         -94.78          53.11         -49.09          134.3          121.5
    0.4407              -43.28          6.246          12.05          41.95         -15.23         -5.994         -94.79          53.09         -48.99          134.2          121.5
    0.4666              -43.27          6.259          12.09          41.96         -15.22         -5.993          -94.8          53.07         -48.89          134.2          121.5
    0.4926              -43.26          6.274          12.12          41.97         -15.22         -5.992         -94.82          53.05         -48.77          134.1          121.5
    0.5185              -43.24           6.29          12.16          41.98         -15.22          -5.99         -94.83          53.02         -48.65          134.1          121.5
    0.5444              -43.22          6.307           12.2          41.99         -15.21         -5.989         -94.85          52.99         -48.51          134.0          121.5
    0.5703              -43.21          6.327          12.25           42.0         -15.21         -5.987         -94.87          52.96         -48.36          134.0          121.5
    0.5963              -43.18          6.348           12.3          42.01          -15.2         -5.985         -94.89          52.93         -48.19          133.9          121.5
    0.6222              -43.16          6.372          12.36          42.03          -15.2         -5.983         -94.91          52.89          -48.0          133.8          121.5
    0.6481              -43.13          6.399          12.43          42.04         -15.19         -5.981         -94.93          52.85         -47.79          133.7          121.5
     0.674               -43.1          6.428           12.5          42.06         -15.18         -5.978         -94.96           52.8         -47.55          133.7          121.5
    0.6999              -43.07          6.462          12.58          42.08         -15.18         -5.975         -94.99          52.75         -47.28          133.6          121.6
    0.7259              -43.03            6.5          12.67           42.1         -15.17         -5.972         -95.03          52.69         -46.98          133.4          121.6
    0.7518              -42.99          6.543          12.78          42.13         -15.16         -5.968         -95.07          52.62         -46.64          133.3          121.6
    0.7777              -42.94          6.592           12.9          42.16         -15.15         -5.964         -95.12          52.54         -46.25          133.1          121.6
    0.8036              -42.89          6.648          13.03           42.2         -15.13         -5.959         -95.17          52.45         -45.81          133.0          121.6
    0.8296              -42.82          6.713          13.19          42.24         -15.12         -5.953         -95.23          52.35         -45.29          132.8          121.6
    0.8555              -42.75          6.789          13.38          42.28          -15.1         -5.947          -95.3          52.23         -44.69          132.5          121.7
    0.8814              -42.66          6.877          13.59          42.34         -15.08         -5.939         -95.39          52.08         -43.99          132.3          121.7
    0.9073              -42.56          6.981          13.84           42.4         -15.05          -5.93         -95.49          51.92         -43.16          131.9          121.7
    0.9333              -42.44          7.105          14.15          42.48         -15.02         -5.919          -95.6          51.72         -42.18          131.6          121.8
    0.9592              -42.29          7.253          14.51          42.57         -14.99         -5.906         -95.75          51.48         -41.01          131.1          121.8
